<?xml version="1.0" standalone="no"?>
<!DOCTYPE svg PUBLIC "-//W3C//DTD SVG 20010904//EN"
 "http://www.w3.org/TR/2001/REC-SVG-20010904/DTD/svg10.dtd">
<svg version="1.0" xmlns="http://www.w3.org/2000/svg"
 width="1024.000000pt" height="1024.000000pt" viewBox="0 0 1024.000000 1024.000000"
 preserveAspectRatio="xMidYMid meet">
<metadata>
Created by potrace 1.11, written by Peter Selinger 2001-2013
</metadata>
<g transform="translate(0.000000,1024.000000) scale(0.100000,-0.100000)"
fill="#000000" stroke="none">
<path d="M4955 10225 c-115 -25 -272 -90 -392 -161 -111 -67 -551 -360 -1023
-682 -304 -208 -284 -195 -330 -225 -19 -13 -77 -52 -129 -88 -190 -130 -667
-453 -961 -651 -113 -75 -209 -141 -215 -145 -10 -8 -236 -161 -698 -471 -310
-208 -393 -270 -486 -362 -83 -82 -108 -119 -157 -235 -92 -220 -65 -402 102
-698 75 -134 105 -180 321 -506 101 -150 183 -278 183 -282 0 -5 4 -9 8 -9 5
0 14 -10 21 -22 15 -30 10 -22 280 -425 576 -857 574 -854 560 -868 -8 -6 -86
-61 -174 -120 -357 -241 -642 -446 -761 -547 -122 -104 -252 -252 -292 -333
-85 -173 -72 -354 37 -517 44 -65 232 -268 249 -268 4 0 23 -15 43 -33 57 -50
65 -56 209 -161 156 -113 143 -104 280 -198 58 -40 131 -91 163 -113 32 -22
65 -44 75 -50 9 -5 33 -22 52 -36 19 -14 105 -72 190 -130 85 -57 157 -106
160 -109 3 -3 53 -38 112 -78 59 -40 160 -108 225 -152 65 -44 126 -86 137
-93 10 -6 35 -24 55 -38 20 -14 79 -54 131 -89 52 -36 101 -70 108 -77 7 -7
17 -13 22 -13 5 0 15 -6 22 -12 7 -7 45 -34 83 -60 39 -25 122 -81 185 -125
130 -89 321 -220 485 -331 61 -42 144 -99 185 -127 178 -122 400 -273 475
-321 44 -29 85 -56 90 -61 6 -5 42 -26 80 -49 196 -112 285 -145 415 -150 52
-2 113 1 135 7 22 5 49 12 60 14 37 9 179 68 235 98 72 39 253 156 410 264 69
47 195 133 280 191 85 58 182 124 215 147 33 23 125 86 205 140 188 128 339
231 470 320 58 39 148 101 200 137 52 35 138 94 190 130 52 35 160 109 240
163 80 54 179 122 220 150 41 29 170 116 285 195 234 160 386 263 520 355 50
34 155 106 235 160 514 349 676 506 730 706 25 95 16 221 -24 330 -27 76 -111
246 -132 270 -8 8 -14 19 -14 22 0 12 -156 251 -515 787 -194 289 -457 683
-585 875 -128 193 -237 352 -242 353 -4 2 -8 8 -8 14 0 6 -11 26 -25 44 l-25
33 178 118 c97 65 182 121 187 125 6 5 35 25 65 45 678 450 881 659 898 925 8
134 -33 251 -135 378 -55 69 -193 204 -246 238 -12 8 -26 20 -32 26 -5 6 -35
29 -65 51 -30 22 -57 42 -60 46 -4 5 -148 104 -320 219 -8 6 -123 83 -255 172
-132 88 -428 287 -658 442 -231 154 -433 289 -450 300 -18 10 -34 21 -37 25
-3 3 -43 31 -90 61 -47 30 -87 57 -90 60 -3 3 -183 124 -400 269 -217 146
-517 347 -666 447 -357 240 -496 316 -664 360 -84 21 -266 27 -345 9z"/>
</g>
</svg>
